<svg id="a" xmlns="http://www.w3.org/2000/svg" viewBox="0 0 100.79 91.17"><path d="M2.69,89.03c-.45,0-.84-.08-1.16-.22-.34-.14-.61-.35-.84-.61-.23-.26-.39-.58-.5-.93-.12-.36-.18-.76-.19-1.18,0-.42.07-.82.19-1.17.13-.36.32-.66.55-.92.23-.26.51-.47.84-.61.31-.14.67-.22,1.05-.22.5,0,.91.11,1.25.32.33.21.59.47.79.78.2.31.34.66.41,1.04.08.38.1.74.09,1.07H.98c-.01.25.02.48.09.71.07.22.17.41.32.59.14.16.33.3.55.4.23.1.49.15.79.15.39,0,.72-.09.97-.27.25-.18.41-.46.49-.83h.91c-.12.63-.39,1.11-.81,1.42-.42.32-.94.48-1.58.48M3.72,84.45c-.14-.14-.32-.26-.5-.34-.2-.09-.41-.13-.64-.13s-.46.04-.64.13c-.19.08-.36.2-.5.34-.14.14-.25.32-.33.51-.08.18-.13.39-.14.61h3.22c-.01-.22-.06-.42-.14-.62-.09-.2-.2-.36-.34-.5"></path><path d="M7.39,84.18h.02c.38-.68.99-1.02,1.82-1.02.37,0,.67.05.92.15.25.1.44.24.6.42.15.18.26.4.32.65.06.25.1.52.1.82v3.69h-.92v-3.8c0-.35-.1-.62-.3-.82-.21-.21-.48-.3-.83-.3-.28,0-.53.04-.74.13-.21.09-.37.21-.51.37-.14.16-.24.35-.32.56-.06.21-.1.45-.1.7v3.17h-.92v-5.61h.87v.89Z"></path><path d="M15.28,91.17c-.26,0-.52-.03-.79-.09-.27-.05-.52-.15-.74-.28-.23-.13-.41-.3-.55-.51-.14-.21-.23-.47-.24-.77h.92c.01.16.06.3.16.42.1.12.22.21.36.28.14.07.29.13.46.16.16.03.33.04.48.04.31,0,.56-.05.77-.15.21-.11.38-.25.52-.43.14-.18.24-.41.3-.67.05-.26.09-.54.09-.86v-.37h-.02c-.16.35-.4.61-.72.77-.33.16-.67.24-1.03.24-.42,0-.78-.08-1.1-.23-.32-.15-.58-.36-.78-.61-.21-.26-.37-.57-.47-.9-.11-.35-.16-.72-.16-1.1,0-.34.04-.67.13-1.02.09-.36.23-.67.43-.96.21-.29.47-.52.8-.71.34-.18.74-.28,1.23-.28.36,0,.68.08.98.24.29.15.53.38.69.7h0v-.8h.87v5.14c0,.92-.21,1.61-.63,2.06-.42.46-1.08.68-1.98.68M16.6,87.47c.13-.21.23-.44.29-.7.05-.26.09-.52.09-.78s-.03-.49-.09-.73c-.05-.24-.15-.46-.27-.64-.13-.2-.29-.35-.5-.47-.21-.12-.44-.17-.74-.17s-.55.05-.76.17c-.21.11-.38.26-.51.45-.14.18-.24.4-.29.65-.06.25-.1.5-.1.77,0,.25.02.51.08.76.05.25.14.49.26.69.12.21.28.37.49.5.21.12.46.19.76.19s.57-.07.78-.19c.21-.13.38-.29.51-.5"></path><path d="M19.79,81.15h.92v1.13h-.92v-1.13ZM20.71,88.9h-.92v-5.61h.92v5.61Z"></path><path d="M23.47,84.18h.02c.38-.68.99-1.02,1.82-1.02.37,0,.67.05.92.15.25.1.44.24.6.42.15.18.26.4.32.65.06.25.1.52.1.82v3.69h-.92v-3.8c0-.35-.1-.62-.3-.82-.21-.21-.48-.3-.83-.3-.28,0-.53.04-.74.13-.21.09-.37.21-.51.37-.14.16-.24.35-.32.56-.06.21-.1.45-.1.7v3.17h-.92v-5.61h.87v.89Z"></path><path d="M31.49,89.03c-.45,0-.84-.08-1.16-.22-.34-.14-.61-.35-.84-.61-.23-.26-.39-.58-.5-.93-.12-.36-.18-.76-.19-1.18,0-.42.07-.82.19-1.17.13-.36.32-.66.55-.92.23-.26.51-.47.84-.61.31-.14.67-.22,1.05-.22.5,0,.91.11,1.25.32.33.21.59.47.79.78.2.31.34.66.41,1.04.08.38.1.74.09,1.07h-4.2c-.01.25.02.48.09.71.07.22.17.41.32.59.14.16.33.3.55.4.23.1.49.15.79.15.39,0,.72-.09.97-.27.25-.18.41-.46.49-.83h.91c-.12.63-.39,1.11-.81,1.42-.42.32-.94.48-1.58.48M32.52,84.45c-.14-.14-.32-.26-.5-.34-.2-.09-.41-.13-.64-.13s-.46.04-.64.13c-.19.08-.36.2-.5.34-.14.14-.25.32-.32.51-.08.18-.13.39-.14.61h3.22c-.01-.22-.07-.42-.14-.62-.09-.2-.2-.36-.34-.5"></path><path d="M37.89,89.03c-.45,0-.84-.08-1.16-.22-.34-.14-.61-.35-.84-.61-.23-.26-.39-.58-.5-.93-.12-.36-.18-.76-.19-1.18,0-.42.07-.82.19-1.17.13-.36.32-.66.55-.92.23-.26.51-.47.84-.61.31-.14.67-.22,1.05-.22.5,0,.91.11,1.25.32.33.21.59.47.79.78.2.31.34.66.41,1.04.08.38.1.74.09,1.07h-4.2c-.01.25.02.48.09.71.07.22.17.41.32.59.14.16.33.3.55.4.23.1.49.15.79.15.39,0,.72-.09.97-.27.25-.18.41-.46.49-.83h.91c-.12.63-.39,1.11-.81,1.42-.42.32-.94.48-1.58.48M38.92,84.45c-.14-.14-.32-.26-.5-.34-.2-.09-.41-.13-.64-.13s-.46.04-.64.13c-.19.08-.36.2-.5.34-.14.14-.25.32-.32.51-.08.18-.13.39-.14.61h3.22c-.01-.22-.07-.42-.14-.62-.09-.2-.2-.36-.34-.5"></path><path d="M42.74,84.47h.02c.23-.46.5-.79.82-1.01.33-.22.74-.32,1.24-.3v.98c-.37,0-.68.05-.94.15-.26.1-.47.25-.63.45-.16.2-.27.43-.35.72-.08.27-.11.6-.11.96v2.5h-.92v-5.61h.87v1.18Z"></path><path d="M48.35,89.03c-.45,0-.84-.08-1.16-.22-.34-.14-.61-.35-.84-.61-.23-.26-.39-.58-.5-.93-.12-.36-.18-.76-.19-1.18,0-.42.07-.82.19-1.17.13-.36.32-.66.55-.92.23-.26.51-.47.84-.61.31-.14.67-.22,1.05-.22.5,0,.91.11,1.25.32.33.21.59.47.79.78.2.31.34.66.41,1.04.08.38.1.74.09,1.07h-4.2c-.01.25.02.48.09.71.07.22.17.41.32.59.14.16.33.3.55.4.23.1.49.15.79.15.39,0,.72-.09.97-.27.25-.18.41-.46.49-.83h.91c-.12.63-.39,1.11-.81,1.42-.42.32-.94.48-1.58.48M49.38,84.45c-.14-.14-.32-.26-.5-.34-.2-.09-.41-.13-.64-.13s-.46.04-.64.13c-.19.08-.36.2-.5.34-.14.14-.25.32-.32.51-.08.18-.13.39-.14.61h3.22c-.01-.22-.07-.42-.14-.62-.09-.2-.2-.36-.34-.5"></path><path d="M56.45,88.14h-.02c-.15.32-.39.53-.72.67-.33.14-.68.21-1.07.21-.43,0-.81-.08-1.13-.24-.32-.16-.6-.37-.8-.64-.22-.27-.38-.58-.49-.93-.11-.36-.16-.73-.16-1.13s.06-.77.16-1.13c.1-.36.26-.66.48-.92.21-.27.48-.48.8-.63.31-.16.69-.24,1.12-.24.14,0,.3,0,.47.04.16.03.34.08.5.15.16.07.33.15.48.27.14.11.27.25.37.41h.02v-2.89h.92v7.75h-.92v-.76ZM53.46,87.58c.14.2.31.35.54.47.22.12.48.17.77.17.31,0,.58-.06.79-.18.22-.12.39-.28.53-.48.14-.21.24-.43.3-.68.05-.25.09-.51.09-.77s-.03-.54-.1-.79c-.07-.26-.16-.49-.3-.68-.14-.2-.33-.35-.55-.47-.23-.12-.5-.18-.82-.18s-.57.07-.79.18c-.22.12-.39.28-.52.49-.13.21-.23.43-.28.69-.05.26-.09.53-.09.8s.03.52.11.77c.07.25.17.47.32.66"></path><path d="M62.33,83.29h.94v-.84c0-.46.13-.8.4-1.03.26-.24.64-.36,1.15-.36.09,0,.19.01.3.02.11.01.21.03.29.07v.8c-.08-.03-.16-.04-.26-.05-.1-.01-.18-.02-.26-.02-.23,0-.4.04-.52.13-.12.09-.18.25-.18.5v.78h1.09v.81h-1.09v4.8h-.92v-4.8h-.94v-.81Z"></path><path d="M66.87,84.03c.23-.27.52-.48.86-.63.34-.15.73-.23,1.17-.23s.84.08,1.17.23c.34.15.63.36.86.63.23.26.4.57.52.93.12.36.17.74.17,1.15s-.05.79-.17,1.15c-.12.36-.29.66-.52.93-.23.26-.52.47-.86.62-.34.14-.73.22-1.17.22s-.84-.08-1.17-.22c-.34-.15-.63-.36-.86-.62-.23-.27-.4-.58-.52-.93-.12-.36-.17-.74-.17-1.15s.05-.79.17-1.15c.12-.36.29-.67.52-.93M67.67,87.69c.16.17.35.3.55.4.22.1.44.14.68.14s.47-.04.67-.14c.22-.1.4-.23.56-.4.16-.18.28-.4.37-.66.1-.27.14-.58.14-.91s-.04-.64-.14-.9c-.09-.27-.21-.49-.37-.67-.16-.18-.35-.32-.56-.41-.21-.1-.43-.14-.67-.14s-.47.04-.68.14c-.21.1-.39.23-.55.41-.16.18-.28.4-.38.67-.09.26-.13.57-.13.9s.04.64.13.91c.1.26.22.48.38.66"></path><path d="M74.07,84.47h.02c.23-.46.5-.79.82-1.01.33-.22.74-.32,1.24-.3v.98c-.37,0-.68.05-.94.15-.26.1-.47.25-.63.45-.16.2-.27.43-.35.72-.08.27-.11.6-.11.96v2.5h-.92v-5.61h.87v1.18Z"></path><rect x="80.46" y="81.15" width=".92" height="7.75" style="fill:#d9182b;"></rect><rect x="83.3" y="81.15" width=".92" height="1.13" style="fill:#d9182b;"></rect><rect x="83.3" y="83.29" width=".92" height="5.61" style="fill:#d9182b;"></rect><path d="M85.54,83.29h.94v-.84c0-.46.13-.8.4-1.03.26-.24.64-.36,1.15-.36.09,0,.19.01.3.02.11.01.21.03.29.07v.8c-.08-.03-.16-.04-.26-.05-.1-.01-.18-.02-.26-.02-.23,0-.4.04-.52.13-.12.09-.18.25-.18.5v.78h1.09v.81h-1.09v4.8h-.92v-4.8h-.94v-.81Z" style="fill:#d9182b;"></path><path d="M92.08,89.03c-.45,0-.84-.08-1.16-.22-.34-.14-.61-.35-.84-.61-.23-.26-.39-.58-.5-.93-.12-.36-.18-.76-.2-1.18,0-.42.07-.82.2-1.17.13-.36.32-.66.55-.92.23-.26.51-.47.84-.61.32-.14.67-.22,1.05-.22.5,0,.91.11,1.25.32.33.21.59.47.79.78.2.31.34.66.41,1.04.08.38.1.74.09,1.07h-4.2c-.01.25.02.48.09.71.07.22.17.41.32.59.14.16.33.3.55.4.23.1.49.15.79.15.39,0,.72-.09.97-.27.25-.18.41-.46.49-.83h.91c-.12.63-.39,1.11-.81,1.42-.42.32-.94.48-1.58.48M93.11,84.45c-.14-.14-.32-.26-.5-.34-.2-.09-.41-.13-.64-.13s-.46.04-.64.13c-.2.08-.36.2-.5.34-.14.14-.25.32-.32.51-.08.18-.13.39-.14.61h3.23c-.01-.22-.07-.42-.14-.62-.09-.2-.2-.36-.34-.5" style="fill:#d9182b;"></path><path d="M48.12,0c19.81.03,35.85,16.11,35.83,35.92-.03,19.81-16.11,35.85-35.92,35.83-19.81-.03-35.85-16.11-35.83-35.92C12.22,16.02,28.3-.03,48.12,0" style="fill:#d9182b;"></path><path d="M75.46,54.9c0,1.18-.9,1.96-1.93,1.96-1.13,0-1.93-.85-1.93-1.96,0-1.18.9-1.96,1.93-1.96,1.03,0,1.92.78,1.92,1.96M75.04,54.9c0-.95-.66-1.62-1.5-1.62-.85,0-1.51.66-1.51,1.62,0,.89.57,1.62,1.51,1.62.84,0,1.5-.66,1.5-1.62" style="fill:#fff;"></path><path d="M73.15,55.09v.93s-.36,0-.36,0v-2.17s.83,0,.83,0c.53,0,.79.18.79.62,0,.39-.24.56-.57.59l.61.96h-.4s-.56-.93-.56-.93h-.34ZM73.15,54.79h.4c.27,0,.5-.02.5-.34,0-.26-.26-.29-.47-.29h-.43v.63Z" style="fill:#fff;"></path><path d="M56.33,40.68v-1.01c.01-8.14-1.86-11.16-4.18-11.16-2.32,0-4.21,3.01-4.22,11.15-.01,8.14,1.87,11.16,4.19,11.16,1.95,0,3.6-2.13,4.07-7.66l-2.84-.37c-.11,3.37-.44,4.69-1.23,4.68-.93,0-1.2-1.86-1.23-6.8h2.48s2.95,0,2.95,0ZM52.14,31.85c.89,0,1.2,1.73,1.24,6.25h-2.48c.05-4.52.34-6.25,1.24-6.25" style="fill:#fff;"></path><path d="M65.86,40.69v-1.01c.01-8.14-1.86-11.16-4.18-11.16-2.32,0-4.21,3.01-4.22,11.15,0,8.14,1.87,11.16,4.19,11.16,1.95,0,3.6-2.13,4.08-7.66l-2.84-.37c-.11,3.37-.44,4.68-1.23,4.68-.93,0-1.2-1.86-1.22-6.8h2.48s2.95,0,2.95,0ZM61.67,31.87c.89,0,1.2,1.73,1.24,6.25h-2.48c.05-4.52.34-6.25,1.24-6.25" style="fill:#fff;"></path><path d="M24.39,37.93c.19.01.56.05.79.03,5.84-.47,9.05-5.48,9.06-11.05,0-5.44-3.03-9.79-8.77-9.84-.35,0-.7.05-1.05.05l-.03,20.82ZM20.82,13.5c.84-.11,1.97-.14,2.81-.14,7.52.07,13.52,3.97,13.86,12.66.25,6.39-1.97,11.43-7.68,14.3l16.9,20.35h-3.77s-18.55-21.24-18.55-21.24l-.03,18.79h-3.6s.06-44.74.06-44.74Z" style="fill:#fff;"></path><path d="M41.7,50.57l.02-17.37s0-1.36,1.07-1.36c1.1,0,1.1,1.36,1.1,1.36l-.02,17.37h2.96s.02-17.36.02-17.36v-1.77c0-1.84-1.35-3.16-3.02-2.93-.82.11-1.56.57-2.11,1.22l.04-28.56c-1,.18-1.99.41-2.97.67l-.06,48.72h2.97Z" style="fill:#fff;"></path><path d="M77.45,28.54c-1.08,0-2.01.52-2.49,1.28-.48-.76-1.41-1.28-2.48-1.29-1.07,0-1.99.4-2.47,1.15v-.02c-.25-1.17-1.38-1.22-2.74-1.01-.08.01-.16.03-.23.04l-.03,21.9h2.97s.02-17.36.02-17.36c0,0,0-1.36,1.07-1.36,1.1,0,1.1,1.36,1.1,1.36l-.02,17.37h2.96s.02-17.36.02-17.36c0,0,0-1.36,1.06-1.36,1.1,0,1.1,1.36,1.1,1.36l-.02,17.36h2.96s.02-17.36.02-17.36v-1.77s.01-.51.01-.51c0-1.32-1.26-2.44-2.82-2.44" style="fill:#fff;"></path><path d="M96.54,81.32v2.28h-.43v-2.28h-.82v-.35h2.08v.35h-.82ZM100.36,83.6v-2.19h-.01l-.86,2.19h-.27l-.86-2.19h-.01v2.19h-.43v-2.63h.67l.79,2,.77-2h.66v2.63h-.43Z" style="fill:#d9182b;"></path><rect x="0" width="100.79" height="91.17" style="fill:none;"></rect></svg>